<?xml version="1.0" encoding="utf-8"?>
<!-- Generator: Adobe Illustrator 16.0.0, SVG Export Plug-In . SVG Version: 6.00 Build 0)  -->
<!DOCTYPE svg PUBLIC "-//W3C//DTD SVG 1.0//EN" "http://www.w3.org/TR/2001/REC-SVG-20010904/DTD/svg10.dtd">
<svg version="1.0" xmlns="http://www.w3.org/2000/svg" xmlns:xlink="http://www.w3.org/1999/xlink" x="0px" y="0px" width="43px"
	 height="31px" viewBox="0 0 43 31" style="enable-background:new 0 0 43 31;" xml:space="preserve" id="pop">
<style type="text/css">
<![CDATA[
	.st0{fill:#ED2224;}
	.st1{fill:#FFFFFF;}
]]>

    #pop:hover .st1, .st1:hover {fill:#f00 !important}
</style>
<g id="circle">
	<path id="hov1" class="st1" d="M26.673,30.876c-6.717,0-12.603-4.295-14.646-10.688c-0.124-0.39,0.09-0.806,0.479-0.93
		c0.391-0.129,0.805,0.091,0.93,0.479c1.847,5.778,7.167,9.66,13.237,9.66c7.663,0,13.898-6.234,13.898-13.897
		S34.336,1.603,26.673,1.603c-5.805,0-11.048,3.66-13.048,9.107c-0.141,0.383-0.567,0.576-0.949,0.439
		c-0.383-0.141-0.58-0.565-0.439-0.949c2.213-6.027,8.015-10.076,14.437-10.076c8.479,0,15.377,6.897,15.377,15.376
		S35.152,30.876,26.673,30.876z"/>
</g>
<g id="arrow">
	<polygon id="hov2" class="st1" points="0.477,14.5 27.467,14.5 22.476,9.498 22.476,6.664 31.217,15.426 22.476,24.336 
		22.476,21.512 27.372,16.5 0.477,16.5 	"/>
	<rect id="red" x="0.477" y="14.486" class="st0" width="11.501" height="2.014"/>
</g>
</svg>